<?xml version="1.0" encoding="UTF-8" standalone="no"?>
<!DOCTYPE svg PUBLIC "-//W3C//DTD SVG 1.1//EN" "http://www.w3.org/Graphics/SVG/1.1/DTD/svg11.dtd">
<svg xmlns="http://www.w3.org/2000/svg" version="1.1" viewBox="0.00 0.00 96.00 96.00">

<defs>
    <linearGradient id="lingrad" x1="0%" y1="0%" x2="100%" y2="0%">
      <stop offset="0%" stop-color="#c084fc" />
      <stop offset="100%" stop-color="#db2777" />
    </linearGradient>
  </defs>

<path fill="url(#lingrad)" d="
  M 87.00 45.69
  L 87.00 50.31
  A 0.69 0.69 0.0 0 1 86.31 51.00
  L 51.69 51.00
  A 0.69 0.69 0.0 0 0 51.00 51.69
  L 51.00 89.29
  A 0.69 0.69 0.0 0 1 50.31 89.98
  L 45.69 89.98
  A 0.69 0.69 0.0 0 1 45.00 89.29
  L 45.00 51.69
  A 0.69 0.69 0.0 0 0 44.31 51.00
  L 9.70 51.00
  A 0.69 0.69 0.0 0 1 9.01 50.31
  L 8.99 45.69
  A 0.69 0.69 0.0 0 1 9.68 45.00
  L 44.31 45.00
  A 0.69 0.69 0.0 0 0 45.00 44.31
  L 45.00 6.69
  A 0.69 0.69 0.0 0 1 45.69 6.00
  L 50.31 6.00
  A 0.69 0.69 0.0 0 1 51.00 6.69
  L 51.00 44.31
  A 0.69 0.69 0.0 0 0 51.69 45.00
  L 86.31 45.00
  A 0.69 0.69 0.0 0 1 87.00 45.69
  Z
  M 70.54 32.12
  A 0.46 0.46 0.0 0 0 70.74 33.00
  L 80.38 33.00
  Q 81.00 33.00 81.00 33.63
  L 81.00 38.25
  Q 81.00 39.00 80.25 39.00
  L 60.62 39.00
  Q 59.99 39.00 60.00 38.37
  L 60.01 33.39
  Q 60.01 32.84 60.49 32.57
  Q 67.27 28.83 72.77 23.53
  C 80.21 16.35 66.44 10.25 66.00 20.32
  Q 65.97 21.00 65.29 21.00
  L 60.71 21.00
  Q 60.13 21.00 60.11 20.43
  C 59.61 6.44 79.52 5.24 80.89 17.97
  C 81.56 24.19 75.73 29.66 70.54 32.12
  Z
  M 19.03 57.00
  L 29.08 57.00
  A 0.92 0.92 0.0 0 1 30.00 57.92
  L 30.00 77.07
  A 0.92 0.92 0.0 0 0 30.92 77.99
  L 35.08 78.01
  A 0.92 0.92 0.0 0 1 36.00 78.93
  L 36.00 83.08
  A 0.92 0.92 0.0 0 1 35.08 84.00
  L 18.92 84.00
  A 0.92 0.92 0.0 0 1 18.00 83.08
  L 18.00 78.93
  A 0.92 0.92 0.0 0 1 18.92 78.01
  L 23.08 77.99
  A 0.92 0.92 0.0 0 0 24.00 77.07
  L 24.00 63.92
  A 0.92 0.92 0.0 0 0 23.08 63.00
  L 18.91 63.00
  A 0.92 0.92 0.0 0 1 17.99 62.05
  L 18.11 57.89
  A 0.92 0.92 0.0 0 1 19.03 57.00
  Z"
/>
</svg>
